<?xml version="1.0" encoding="UTF-8" standalone="no"?>
<!DOCTYPE svg PUBLIC "-//W3C//DTD SVG 1.0//EN" "http://www.w3.org/TR/2001/PR-SVG-20010719/DTD/svg10.dtd">
<svg width="40cm" height="17cm" viewBox="-80 -1 800 340" xmlns="http://www.w3.org/2000/svg" xmlns:xlink="http://www.w3.org/1999/xlink">
  <rect style="fill: none; fill-opacity:0; stroke-width: 2.35099e-037; stroke: #ffffff" x="-80" y="0" width="800" height="340"/>
  <g>
    <path style="fill: #ffffc4" d="M 257.778 20 C 275.556,20 364.444,20 382.222,20 C 400,20 400,20 400,30 C 400,40 400,60 400,70 C 400,80 400,80 382.222,80 C 364.444,80 275.556,80 257.778,80 C 240,80 240,80 240,70 C 240,60 240,40 240,30 C 240,20 240,20 257.778,20z"/>
    <path style="fill: none; fill-opacity:0; stroke-width: 2; stroke: #000000" d="M 257.778 20 C 275.556,20 364.444,20 382.222,20 C 400,20 400,20 400,30 C 400,40 400,60 400,70 C 400,80 400,80 382.222,80 C 364.444,80 275.556,80 257.778,80 C 240,80 240,80 240,70 C 240,60 240,40 240,30 C 240,20 240,20 257.778,20"/>
    <path style="fill: none; fill-opacity:0; stroke-width: 0.2; stroke: #000000" d="M 257.778 20 C 275.556,20 364.444,20 382.222,20 C 400,20 400,20 400,30 C 400,40 400,60 400,70 C 400,80 400,80 382.222,80 C 364.444,80 275.556,80 257.778,80 C 240,80 240,80 240,70 C 240,60 240,40 240,30 C 240,20 240,20 257.778,20"/>
    <line style="fill: none; fill-opacity:0; stroke-width: 0.2; stroke: #000000" x1="257.778" y1="80" x2="382.222" y2="80"/>
    <line style="fill: none; fill-opacity:0; stroke-width: 0.2; stroke: #000000" x1="400" y1="30" x2="400" y2="70"/>
    <line style="fill: none; fill-opacity:0; stroke-width: 0.2; stroke: #000000" x1="240" y1="30" x2="240" y2="70"/>
    <line style="fill: none; fill-opacity:0; stroke-width: 0.2; stroke: #000000" x1="257.778" y1="20" x2="382.222" y2="20"/>
    <text font-size="27.0933" style="fill: #000000;text-anchor:middle;font-family:sans-serif;font-style:normal;font-weight:normal" x="320" y="60.16">
      <tspan x="320" y="60.16">entity</tspan>
    </text>
  </g>
  <g>
    <path style="fill: #ffffc4" d="M 257.778 140 C 275.556,140 364.444,140 382.222,140 C 400,140 400,140 400,150 C 400,160 400,180 400,190 C 400,200 400,200 382.222,200 C 364.444,200 275.556,200 257.778,200 C 240,200 240,200 240,190 C 240,180 240,160 240,150 C 240,140 240,140 257.778,140z"/>
    <path style="fill: none; fill-opacity:0; stroke-width: 2; stroke: #000000" d="M 257.778 140 C 275.556,140 364.444,140 382.222,140 C 400,140 400,140 400,150 C 400,160 400,180 400,190 C 400,200 400,200 382.222,200 C 364.444,200 275.556,200 257.778,200 C 240,200 240,200 240,190 C 240,180 240,160 240,150 C 240,140 240,140 257.778,140"/>
    <path style="fill: none; fill-opacity:0; stroke-width: 0.2; stroke: #000000" d="M 257.778 140 C 275.556,140 364.444,140 382.222,140 C 400,140 400,140 400,150 C 400,160 400,180 400,190 C 400,200 400,200 382.222,200 C 364.444,200 275.556,200 257.778,200 C 240,200 240,200 240,190 C 240,180 240,160 240,150 C 240,140 240,140 257.778,140"/>
    <line style="fill: none; fill-opacity:0; stroke-width: 0.2; stroke: #000000" x1="257.778" y1="200" x2="382.222" y2="200"/>
    <line style="fill: none; fill-opacity:0; stroke-width: 0.2; stroke: #000000" x1="400" y1="150" x2="400" y2="190"/>
    <line style="fill: none; fill-opacity:0; stroke-width: 0.2; stroke: #000000" x1="240" y1="150" x2="240" y2="190"/>
    <line style="fill: none; fill-opacity:0; stroke-width: 0.2; stroke: #000000" x1="257.778" y1="140" x2="382.222" y2="140"/>
    <text font-size="27.0933" style="fill: #000000;text-anchor:middle;font-family:sans-serif;font-style:normal;font-weight:normal" x="320" y="180.16">
      <tspan x="320" y="180.16">location</tspan>
    </text>
  </g>
  <g>
    <path style="fill: #ffffc4" d="M 57.7778 140 C 75.5556,140 164.444,140 182.222,140 C 200,140 200,140 200,150 C 200,160 200,180 200,190 C 200,200 200,200 182.222,200 C 164.444,200 75.5556,200 57.7778,200 C 40,200 40,200 40,190 C 40,180 40,160 40,150 C 40,140 40,140 57.7778,140z"/>
    <path style="fill: none; fill-opacity:0; stroke-width: 2; stroke: #000000" d="M 57.7778 140 C 75.5556,140 164.444,140 182.222,140 C 200,140 200,140 200,150 C 200,160 200,180 200,190 C 200,200 200,200 182.222,200 C 164.444,200 75.5556,200 57.7778,200 C 40,200 40,200 40,190 C 40,180 40,160 40,150 C 40,140 40,140 57.7778,140"/>
    <path style="fill: none; fill-opacity:0; stroke-width: 0.2; stroke: #000000" d="M 57.7778 140 C 75.5556,140 164.444,140 182.222,140 C 200,140 200,140 200,150 C 200,160 200,180 200,190 C 200,200 200,200 182.222,200 C 164.444,200 75.5556,200 57.7778,200 C 40,200 40,200 40,190 C 40,180 40,160 40,150 C 40,140 40,140 57.7778,140"/>
    <line style="fill: none; fill-opacity:0; stroke-width: 0.2; stroke: #000000" x1="57.7778" y1="200" x2="182.222" y2="200"/>
    <line style="fill: none; fill-opacity:0; stroke-width: 0.2; stroke: #000000" x1="200" y1="150" x2="200" y2="190"/>
    <line style="fill: none; fill-opacity:0; stroke-width: 0.2; stroke: #000000" x1="40" y1="150" x2="40" y2="190"/>
    <line style="fill: none; fill-opacity:0; stroke-width: 0.2; stroke: #000000" x1="57.7778" y1="140" x2="182.222" y2="140"/>
    <text font-size="27.0933" style="fill: #000000;text-anchor:middle;font-family:sans-serif;font-style:normal;font-weight:normal" x="120" y="180.16">
      <tspan x="120" y="180.16">thing</tspan>
    </text>
  </g>
  <text font-size="12.8" style="fill: #000000;text-anchor:start;font-family:sans-serif;font-style:normal;font-weight:normal" x="132.934" y="98.4364">
    <tspan x="132.934" y="98.4364"></tspan>
  </text>
  <text font-size="12.8" style="fill: #000000;text-anchor:start;font-family:sans-serif;font-style:normal;font-weight:normal" x="381.23" y="130.823">
    <tspan x="381.23" y="130.823"></tspan>
  </text>
  <text font-size="12.8" style="fill: #000000;text-anchor:start;font-family:sans-serif;font-style:normal;font-weight:normal" x="404.266" y="190.198">
    <tspan x="404.266" y="190.198"></tspan>
  </text>
  <line style="fill: none; fill-opacity:0; stroke-width: 2; stroke: #000000" x1="320" y1="80" x2="120" y2="140"/>
  <line style="fill: none; fill-opacity:0; stroke-width: 2; stroke: #000000" x1="320" y1="80" x2="320" y2="140"/>
  <g>
    <path style="fill: #f7f7f7" d="M 457.778 140 C 475.556,140 564.444,140 582.222,140 C 600,140 600,140 600,150 C 600,160 600,180 600,190 C 600,200 600,200 582.222,200 C 564.444,200 475.556,200 457.778,200 C 440,200 440,200 440,190 C 440,180 440,160 440,150 C 440,140 440,140 457.778,140z"/>
    <path style="fill: none; fill-opacity:0; stroke-width: 2; stroke: #000000" d="M 457.778 140 C 475.556,140 564.444,140 582.222,140 C 600,140 600,140 600,150 C 600,160 600,180 600,190 C 600,200 600,200 582.222,200 C 564.444,200 475.556,200 457.778,200 C 440,200 440,200 440,190 C 440,180 440,160 440,150 C 440,140 440,140 457.778,140"/>
    <path style="fill: none; fill-opacity:0; stroke-width: 0.2; stroke: #000000" d="M 457.778 140 C 475.556,140 564.444,140 582.222,140 C 600,140 600,140 600,150 C 600,160 600,180 600,190 C 600,200 600,200 582.222,200 C 564.444,200 475.556,200 457.778,200 C 440,200 440,200 440,190 C 440,180 440,160 440,150 C 440,140 440,140 457.778,140"/>
    <line style="fill: none; fill-opacity:0; stroke-width: 0.2; stroke: #000000" x1="457.778" y1="200" x2="582.222" y2="200"/>
    <line style="fill: none; fill-opacity:0; stroke-width: 0.2; stroke: #000000" x1="600" y1="150" x2="600" y2="190"/>
    <line style="fill: none; fill-opacity:0; stroke-width: 0.2; stroke: #000000" x1="440" y1="150" x2="440" y2="190"/>
    <line style="fill: none; fill-opacity:0; stroke-width: 0.2; stroke: #000000" x1="457.778" y1="140" x2="582.222" y2="140"/>
    <text font-size="27.0933" style="fill: #000000;text-anchor:middle;font-family:sans-serif;font-style:normal;font-weight:normal" x="520" y="180.16">
      <tspan x="520" y="180.16">literal</tspan>
    </text>
  </g>
  <g>
    <path style="fill: #f7f7f7" d="M 357.778 260 C 375.556,260 464.444,260 482.222,260 C 500,260 500,260 500,270 C 500,280 500,300 500,310 C 500,320 500,320 482.222,320 C 464.444,320 375.556,320 357.778,320 C 340,320 340,320 340,310 C 340,300 340,280 340,270 C 340,260 340,260 357.778,260z"/>
    <path style="fill: none; fill-opacity:0; stroke-width: 2; stroke: #000000" d="M 357.778 260 C 375.556,260 464.444,260 482.222,260 C 500,260 500,260 500,270 C 500,280 500,300 500,310 C 500,320 500,320 482.222,320 C 464.444,320 375.556,320 357.778,320 C 340,320 340,320 340,310 C 340,300 340,280 340,270 C 340,260 340,260 357.778,260"/>
    <path style="fill: none; fill-opacity:0; stroke-width: 0.2; stroke: #000000" d="M 357.778 260 C 375.556,260 464.444,260 482.222,260 C 500,260 500,260 500,270 C 500,280 500,300 500,310 C 500,320 500,320 482.222,320 C 464.444,320 375.556,320 357.778,320 C 340,320 340,320 340,310 C 340,300 340,280 340,270 C 340,260 340,260 357.778,260"/>
    <line style="fill: none; fill-opacity:0; stroke-width: 0.2; stroke: #000000" x1="357.778" y1="320" x2="482.222" y2="320"/>
    <line style="fill: none; fill-opacity:0; stroke-width: 0.2; stroke: #000000" x1="500" y1="270" x2="500" y2="310"/>
    <line style="fill: none; fill-opacity:0; stroke-width: 0.2; stroke: #000000" x1="340" y1="270" x2="340" y2="310"/>
    <line style="fill: none; fill-opacity:0; stroke-width: 0.2; stroke: #000000" x1="357.778" y1="260" x2="482.222" y2="260"/>
    <text font-size="27.0933" style="fill: #000000;text-anchor:middle;font-family:sans-serif;font-style:normal;font-weight:normal" x="420" y="300.16">
      <tspan x="420" y="300.16">string</tspan>
    </text>
  </g>
  <g>
    <path style="fill: #f7f7f7" d="M 557.778 260 C 575.556,260 664.444,260 682.222,260 C 700,260 700,260 700,270 C 700,280 700,300 700,310 C 700,320 700,320 682.222,320 C 664.444,320 575.556,320 557.778,320 C 540,320 540,320 540,310 C 540,300 540,280 540,270 C 540,260 540,260 557.778,260z"/>
    <path style="fill: none; fill-opacity:0; stroke-width: 2; stroke: #000000" d="M 557.778 260 C 575.556,260 664.444,260 682.222,260 C 700,260 700,260 700,270 C 700,280 700,300 700,310 C 700,320 700,320 682.222,320 C 664.444,320 575.556,320 557.778,320 C 540,320 540,320 540,310 C 540,300 540,280 540,270 C 540,260 540,260 557.778,260"/>
    <path style="fill: none; fill-opacity:0; stroke-width: 0.2; stroke: #000000" d="M 557.778 260 C 575.556,260 664.444,260 682.222,260 C 700,260 700,260 700,270 C 700,280 700,300 700,310 C 700,320 700,320 682.222,320 C 664.444,320 575.556,320 557.778,320 C 540,320 540,320 540,310 C 540,300 540,280 540,270 C 540,260 540,260 557.778,260"/>
    <line style="fill: none; fill-opacity:0; stroke-width: 0.2; stroke: #000000" x1="557.778" y1="320" x2="682.222" y2="320"/>
    <line style="fill: none; fill-opacity:0; stroke-width: 0.2; stroke: #000000" x1="700" y1="270" x2="700" y2="310"/>
    <line style="fill: none; fill-opacity:0; stroke-width: 0.2; stroke: #000000" x1="540" y1="270" x2="540" y2="310"/>
    <line style="fill: none; fill-opacity:0; stroke-width: 0.2; stroke: #000000" x1="557.778" y1="260" x2="682.222" y2="260"/>
    <text font-size="27.0933" style="fill: #000000;text-anchor:middle;font-family:sans-serif;font-style:normal;font-weight:normal" x="620" y="300.16">
      <tspan x="620" y="300.16">integer</tspan>
    </text>
  </g>
  <line style="fill: none; fill-opacity:0; stroke-width: 2; stroke: #000000" x1="320" y1="80" x2="520" y2="140"/>
  <line style="fill: none; fill-opacity:0; stroke-width: 2; stroke: #000000" x1="520" y1="200" x2="620" y2="260"/>
  <line style="fill: none; fill-opacity:0; stroke-width: 2; stroke: #000000" x1="420" y1="260" x2="520" y2="200"/>
  <g>
    <path style="fill: #ffffc4" d="M 157.778 260 C 175.556,260 264.444,260 282.222,260 C 300,260 300,260 300,270 C 300,280 300,300 300,310 C 300,320 300,320 282.222,320 C 264.444,320 175.556,320 157.778,320 C 140,320 140,320 140,310 C 140,300 140,280 140,270 C 140,260 140,260 157.778,260z"/>
    <path style="fill: none; fill-opacity:0; stroke-width: 2; stroke: #000000" d="M 157.778 260 C 175.556,260 264.444,260 282.222,260 C 300,260 300,260 300,270 C 300,280 300,300 300,310 C 300,320 300,320 282.222,320 C 264.444,320 175.556,320 157.778,320 C 140,320 140,320 140,310 C 140,300 140,280 140,270 C 140,260 140,260 157.778,260"/>
    <path style="fill: none; fill-opacity:0; stroke-width: 0.2; stroke: #000000" d="M 157.778 260 C 175.556,260 264.444,260 282.222,260 C 300,260 300,260 300,270 C 300,280 300,300 300,310 C 300,320 300,320 282.222,320 C 264.444,320 175.556,320 157.778,320 C 140,320 140,320 140,310 C 140,300 140,280 140,270 C 140,260 140,260 157.778,260"/>
    <line style="fill: none; fill-opacity:0; stroke-width: 0.2; stroke: #000000" x1="157.778" y1="320" x2="282.222" y2="320"/>
    <line style="fill: none; fill-opacity:0; stroke-width: 0.2; stroke: #000000" x1="300" y1="270" x2="300" y2="310"/>
    <line style="fill: none; fill-opacity:0; stroke-width: 0.2; stroke: #000000" x1="140" y1="270" x2="140" y2="310"/>
    <line style="fill: none; fill-opacity:0; stroke-width: 0.2; stroke: #000000" x1="157.778" y1="260" x2="282.222" y2="260"/>
    <text font-size="27.0933" style="fill: #000000;text-anchor:middle;font-family:sans-serif;font-style:normal;font-weight:normal" x="220" y="300.16">
      <tspan x="220" y="300.16">actor</tspan>
    </text>
  </g>
  <g>
    <path style="fill: #ffffc4" d="M -42.2222 260 C -24.4444,260 64.4444,260 82.2222,260 C 100,260 100,260 100,270 C 100,280 100,300 100,310 C 100,320 100,320 82.2222,320 C 64.4444,320 -24.4444,320 -42.2222,320 C -60,320 -60,320 -60,310 C -60,300 -60,280 -60,270 C -60,260 -60,260 -42.2222,260z"/>
    <path style="fill: none; fill-opacity:0; stroke-width: 2; stroke: #000000" d="M -42.2222 260 C -24.4444,260 64.4444,260 82.2222,260 C 100,260 100,260 100,270 C 100,280 100,300 100,310 C 100,320 100,320 82.2222,320 C 64.4444,320 -24.4444,320 -42.2222,320 C -60,320 -60,320 -60,310 C -60,300 -60,280 -60,270 C -60,260 -60,260 -42.2222,260"/>
    <path style="fill: none; fill-opacity:0; stroke-width: 0.2; stroke: #000000" d="M -42.2222 260 C -24.4444,260 64.4444,260 82.2222,260 C 100,260 100,260 100,270 C 100,280 100,300 100,310 C 100,320 100,320 82.2222,320 C 64.4444,320 -24.4444,320 -42.2222,320 C -60,320 -60,320 -60,310 C -60,300 -60,280 -60,270 C -60,260 -60,260 -42.2222,260"/>
    <line style="fill: none; fill-opacity:0; stroke-width: 0.2; stroke: #000000" x1="-42.2222" y1="320" x2="82.2222" y2="320"/>
    <line style="fill: none; fill-opacity:0; stroke-width: 0.2; stroke: #000000" x1="100" y1="270" x2="100" y2="310"/>
    <line style="fill: none; fill-opacity:0; stroke-width: 0.2; stroke: #000000" x1="-60" y1="270" x2="-60" y2="310"/>
    <line style="fill: none; fill-opacity:0; stroke-width: 0.2; stroke: #000000" x1="-42.2222" y1="260" x2="82.2222" y2="260"/>
    <text font-size="27.0933" style="fill: #000000;text-anchor:middle;font-family:sans-serif;font-style:normal;font-weight:normal" x="20" y="300.16">
      <tspan x="20" y="300.16">object</tspan>
    </text>
  </g>
  <line style="fill: none; fill-opacity:0; stroke-width: 2; stroke: #000000" x1="120" y1="200" x2="220" y2="260"/>
  <line style="fill: none; fill-opacity:0; stroke-width: 2; stroke: #000000" x1="20" y1="260" x2="120" y2="200"/>
</svg>
